<svg width="24" height="24" viewBox="0 0 24 24" fill="none" xmlns="http://www.w3.org/2000/svg">
<path d="M6.19727 4.11205C6.19699 4.67192 5.97562 5.20875 5.58185 5.60444C5.18809 6.00013 4.65418 6.22227 4.09759 6.22199C3.54099 6.22171 3.00731 5.99903 2.61393 5.60295C2.22056 5.20686 1.99972 4.66981 2 4.10994C2.00028 3.55007 2.22165 3.01324 2.61542 2.61755C3.00919 2.22186 3.54309 1.99972 4.09969 2C4.65628 2.00028 5.18996 2.22296 5.58334 2.61904C5.97671 3.01513 6.19755 3.55218 6.19727 4.11205ZM6.26023 7.78518H2.06296V21H6.26023V7.78518ZM12.8919 7.78518H8.71564V21H12.8499V14.0654C12.8499 10.2023 17.8552 9.8434 17.8552 14.0654V21H22V12.6299C22 6.11749 14.5918 6.36026 12.8499 9.55841L12.8919 7.78518Z" fill="white"/>
</svg>
