<svg width="24" height="24" viewBox="0 0 24 24" fill="none" xmlns="http://www.w3.org/2000/svg">
<path d="M12 2C6.475 2 2 6.5883 2 12.2532C1.99887 14.4056 2.65881 16.5038 3.88622 18.2499C5.11362 19.9961 6.84615 21.3017 8.838 21.9814C9.338 22.0706 9.525 21.763 9.525 21.4934C9.525 21.2504 9.512 20.4434 9.512 19.5842C7 20.0589 6.35 18.9567 6.15 18.3795C6.037 18.0842 5.55 17.1747 5.125 16.9307C4.775 16.739 4.275 16.2642 5.112 16.2519C5.9 16.2386 6.462 16.9953 6.65 17.3029C7.55 18.8532 8.988 18.4174 9.562 18.1488C9.65 17.4823 9.912 17.0343 10.2 16.7779C7.975 16.5216 5.65 15.6367 5.65 11.7149C5.65 10.5993 6.037 9.67759 6.675 8.95884C6.575 8.70251 6.225 7.65156 6.775 6.24174C6.775 6.24174 7.612 5.97311 9.525 7.29372C10.3391 7.06206 11.1802 6.94546 12.025 6.94716C12.875 6.94716 13.725 7.062 14.525 7.2927C16.437 5.95978 17.275 6.24277 17.275 6.24277C17.825 7.65258 17.475 8.70353 17.375 8.95986C18.012 9.67759 18.4 10.587 18.4 11.7149C18.4 15.6501 16.063 16.5216 13.838 16.7779C14.2 17.0978 14.513 17.713 14.513 18.6748C14.513 20.0456 14.5 21.1478 14.5 21.4944C14.5 21.763 14.688 22.0829 15.188 21.9804C17.173 21.2932 18.8979 19.9851 20.1199 18.2402C21.3419 16.4952 21.9994 14.4013 22 12.2532C22 6.5883 17.525 2 12 2Z" fill="white"/>
</svg>
