<svg width="80" height="25" viewBox="0 0 80 25" fill="none" xmlns="http://www.w3.org/2000/svg">
<path d="M40.0001 24.4699C31.4416 24.4667 24.2662 20.7188 23.3667 15.7822C23.3667 15.7822 22.9481 13.2625 40.3476 13.2625C56.88 13.2625 56.6435 15.7828 56.6435 15.7828C55.7431 20.7214 48.5621 24.4696 40.0001 24.4699Z" fill="#332508" stroke="black" stroke-width="0.183115" stroke-linecap="round" stroke-linejoin="round"/>
<path d="M40.3479 13.2624C22.9483 13.2624 23.3667 15.7819 23.3667 15.7819C23.9051 18.7366 26.6927 21.2654 30.6786 22.8204C33.4989 22.1832 36.6653 21.8267 39.9985 21.8259C43.336 21.826 46.507 22.1832 49.3309 22.8211C53.3171 21.2664 56.1048 18.7375 56.6435 15.7826C56.6435 15.7826 56.8802 13.2624 40.3479 13.2624Z" fill="black" fill-opacity="0.5"/>
<path d="M40 21.7598C62.0602 21.7598 79.9436 18.9502 79.9436 15.4844C79.9436 12.0186 62.0602 9.20905 40 9.20905C17.9397 9.20905 0.0563965 12.0186 0.0563965 15.4844C0.0563965 18.9502 17.9397 21.7598 40 21.7598Z" fill="#1E1E1E"/>
<path d="M40 20.4371C62.0914 20.4371 80 17.8876 80 14.7426C80 11.5977 62.0914 9.04819 40 9.04819C17.9086 9.04819 0 11.5977 0 14.7426C0 17.8876 17.9086 20.4371 40 20.4371Z" fill="#80642E"/>
<path d="M39.9999 9.04811C29.3913 9.04812 19.2173 9.64805 11.7159 10.7159C4.21455 11.7838 0.000254003 13.2322 0.00012207 14.7425C0.000254003 16.2527 4.21455 17.7011 11.7159 18.769C19.2173 19.8369 29.3913 20.4368 39.9999 20.4369C50.6084 20.4368 60.7824 19.8369 68.2838 18.769C75.7852 17.7011 79.9995 16.2527 79.9996 14.7425C79.9995 13.2322 75.7852 11.7838 68.2838 10.7159C60.7824 9.64805 50.6084 9.04812 39.9999 9.04811V9.04811ZM42.2405 9.53972C51.8208 9.53972 61.0087 10.0403 67.7832 10.9313C74.5576 11.8223 78.3636 13.0308 78.364 14.2909C78.3646 14.9149 77.4307 15.5328 75.6157 16.1093C73.8006 16.6858 71.1398 17.2097 67.7854 17.651C64.4309 18.0923 60.4485 18.4423 56.0655 18.6811C51.6824 18.9199 46.9847 19.0428 42.2405 19.0428C37.4962 19.0428 32.7985 18.9199 28.4154 18.6811C24.0324 18.4423 20.05 18.0923 16.6955 17.651C13.3411 17.2097 10.6803 16.6858 8.86526 16.1093C7.05018 15.5328 6.1163 14.9149 6.11695 14.2909C6.11732 13.0308 9.92334 11.8223 16.6978 10.9313C23.4722 10.0403 32.6601 9.53972 42.2405 9.53972V9.53972Z" fill="black" fill-opacity="0.3"/>
<path d="M39.9999 18.0109C54.5322 18.0109 66.313 16.0149 66.313 13.5526C66.313 11.0904 54.5322 9.09439 39.9999 9.09439C25.4676 9.09439 13.6868 11.0904 13.6868 13.5526C13.6868 16.0149 25.4676 18.0109 39.9999 18.0109Z" fill="#1E1E1E"/>
<path d="M39.9999 17.1412C54.0519 17.1412 65.4433 15.3324 65.4433 13.1013C65.4433 10.8701 54.0519 9.06135 39.9999 9.06135C25.948 9.06135 14.5566 10.8701 14.5566 13.1013C14.5566 15.3324 25.948 17.1412 39.9999 17.1412Z" fill="#80642E"/>
<path d="M40.0001 15.1961C49.8048 15.1961 57.7531 13.7086 57.7531 11.8736C57.7531 10.0387 49.8048 8.55122 40.0001 8.55122C30.1954 8.55122 22.2471 10.0387 22.2471 11.8736C22.2471 13.7086 30.1954 15.1961 40.0001 15.1961Z" fill="#262626" stroke="black" stroke-width="0.2" stroke-linecap="round" stroke-linejoin="round"/>
<path d="M40 1C31.4484 1.00322 24.2789 5.47837 23.3802 11.3722C23.3802 11.3722 22.9618 14.3803 40.3472 14.3803C56.8661 14.3803 56.6298 11.3714 56.6298 11.3714C55.7301 5.47525 48.5549 1.00035 40 1Z" fill="#A6B2C3" stroke="black" stroke-width="0.2" stroke-linecap="round" stroke-linejoin="round"/>
<path d="M40.0058 1.34729C36.8742 1.34853 33.815 1.96292 31.2221 3.11131C28.6292 4.25971 26.6214 5.88949 25.4574 7.79074C26.8363 6.2541 28.8315 4.96184 31.2518 4.03783C31.2511 4.0456 31.2505 4.05338 31.2501 4.06116C31.2501 4.40521 31.4712 4.73518 31.8648 4.97848C32.2585 5.22178 32.7923 5.35847 33.349 5.35851C33.9057 5.35848 34.4396 5.22178 34.8332 4.97848C35.2268 4.73518 35.448 4.40521 35.448 4.06116C35.4481 3.86456 35.3759 3.67052 35.2369 3.49369C35.0979 3.31687 34.8957 3.16188 34.6455 3.04044C36.37 2.67198 38.181 2.48139 40.0058 2.47633C42.9806 2.4765 45.9008 2.96967 48.4614 3.90435C51.022 4.83903 53.129 6.18093 54.5625 7.78991C53.3978 5.88795 51.3887 4.25774 48.7941 3.10944C46.1996 1.96113 43.1386 1.34738 40.0058 1.34729V1.34729Z" fill="white"/>
<path d="M44.5321 9.08728C44.7205 9.09032 44.9088 9.09354 45.0969 9.09695C44.9088 9.09354 44.7205 9.09032 44.5321 9.08728V9.08728ZM49.306 9.20548C49.4754 9.21107 49.6445 9.21682 49.8134 9.22272C49.6445 9.21682 49.4754 9.21107 49.306 9.20548ZM53.9718 9.40489C54.0934 9.41109 54.2149 9.41736 54.3361 9.42373C54.2149 9.41736 54.0934 9.41109 53.9718 9.40489V9.40489ZM77.1417 12.6053C77.2943 12.6616 77.4402 12.7182 77.5792 12.7752C77.4399 12.7182 77.294 12.6616 77.1417 12.6053V12.6053ZM78.2139 13.0608C79.1628 13.5334 79.644 14.0214 79.6447 14.5116C79.6452 15.2291 78.6166 15.9396 76.6174 16.6025C74.6182 17.2654 71.6876 17.8677 67.9931 18.375C64.2986 18.8824 59.9125 19.2848 55.0852 19.5594C50.2579 19.834 45.0839 19.9753 39.8588 19.9753C29.774 19.9751 20.066 19.449 12.6981 18.5035C5.3303 17.5579 0.852519 16.2634 0.170348 14.8817C0.583545 16.3275 4.95922 17.6948 12.3829 18.698C19.8066 19.7012 29.7038 20.2627 40.0061 20.265C50.5967 20.265 60.7536 19.6742 68.2423 18.6224C75.731 17.5707 79.9382 16.1442 79.9383 14.6569C79.9146 14.1159 79.3338 13.5783 78.2139 13.0608ZM0.0954791 14.6068C0.0877419 14.6235 0.0805303 14.6401 0.0738525 14.6568C0.0917655 14.7113 0.115342 14.7657 0.144563 14.8201C0.118085 14.749 0.101719 14.6779 0.0954791 14.6067V14.6068Z" fill="white" fill-opacity="0.6"/>
<path d="M40.4599 9.06227C41.7333 9.06646 43.0029 9.0854 44.2578 9.11893C43.0026 9.08498 41.733 9.06604 40.4599 9.06227V9.06227ZM44.8194 9.13476C44.9895 9.14005 45.1592 9.14561 45.3285 9.15143C45.1592 9.1456 44.9895 9.14004 44.8194 9.13476V9.13476ZM64.5764 12.0553C65.0383 12.3525 65.2715 12.6571 65.2713 12.9627C65.2703 13.9972 62.5983 14.9893 57.843 15.7207C53.0877 16.4522 46.6386 16.8631 39.9141 16.8631C33.2693 16.8627 26.891 16.461 22.1515 15.7445C17.4119 15.028 14.69 14.0539 14.5711 13.0318C14.5651 13.0549 14.5604 13.0779 14.5569 13.101C14.5565 13.6316 15.2143 14.1569 16.4928 14.6471C17.7712 15.1373 19.6453 15.5828 22.0079 15.9579C24.3706 16.3331 27.1755 16.6308 30.2626 16.8338C33.3497 17.0369 36.6585 17.1414 40 17.1414C43.3415 17.1414 46.6502 17.0369 49.7373 16.8338C52.8244 16.6308 55.6294 16.3331 57.992 15.9579C60.3546 15.5828 62.2287 15.1373 63.5071 14.6471C64.7856 14.1569 65.4434 13.6316 65.443 13.101C65.4432 12.7479 65.1518 12.3963 64.5764 12.0553Z" fill="white" fill-opacity="0.6"/>
</svg>
